<!DOCTYPE svg PUBLIC "-//W3C//DTD SVG 20010904//EN" "http://www.w3.org/TR/2001/REC-SVG-20010904/DTD/svg10.dtd">
<svg version="1.0" xmlns="http://www.w3.org/2000/svg" width="1200px" height="1200px" viewBox="0 0 12000 12000" preserveAspectRatio="xMidYMid meet">
<g id="layer1" fill="#00aef2" stroke="none">
 <path d="M2625 11981 c-22 -10 -57 -37 -77 -59 l-38 -42 -117 0 c-257 -1 -366 -55 -413 -207 -49 -162 -112 -530 -227 -1343 l-18 -125 -45 -23 c-49 -25 -83 -23 -114 8 -18 18 -18 26 38 412 31 216 56 408 56 426 0 59 -39 112 -110 147 -39 20 -283 39 -311 24 -36 -19 -100 -105 -150 -201 -185 -360 -384 -1139 -499 -1946 -16 -117 -30 -225 -30 -240 0 -21 -17 -44 -71 -97 -297 -293 -449 -630 -489 -1086 -34 -386 23 -636 223 -976 66 -112 117 -259 117 -337 0 -86 -43 -154 -81 -130 -22 13 -39 74 -39 137 0 51 -4 68 -19 81 -17 15 -25 16 -55 6 -34 -11 -93 -67 -117 -111 -16 -31 -39 -152 -39 -209 0 -174 81 -525 268 -1165 l75 -260 -11 -130 c-7 -72 -21 -193 -32 -270 -29 -209 -50 -394 -50 -447 0 -132 52 -220 140 -234 62 -10 83 -34 75 -87 -9 -58 18 -179 55 -250 129 -246 463 -727 710 -1022 683 -816 1446 -1408 2257 -1754 500 -212 1145 -377 1698 -435 555 -57 1331 -47 1830 25 768 110 1504 361 2100 714 802 475 1634 1302 2193 2180 193 304 241 415 230 536 -3 28 0 55 6 63 6 8 36 21 67 30 41 11 66 26 87 51 62 70 66 153 22 490 -46 349 -62 506 -55 545 3 19 39 150 80 290 227 784 282 1068 241 1255 -16 74 -29 100 -74 147 -47 50 -96 67 -123 42 -15 -14 -19 -31 -19 -88 0 -132 -63 -183 -105 -83 -43 103 -6 219 175 552 143 264 183 512 145 900 -39 397 -182 716 -443 987 l-103 107 -25 183 c-132 981 -381 1892 -591 2169 -56 74 -68 78 -213 69 -81 -5 -140 -13 -167 -25 -53 -21 -100 -73 -109 -120 -4 -22 14 -179 50 -427 31 -216 56 -403 56 -416 0 -33 -54 -55 -103 -41 -68 19 -72 28 -97 214 -40 304 -129 883 -160 1038 -35 171 -71 298 -98 342 -44 71 -185 115 -374 115 l-117 0 -45 48 c-51 55 -94 72 -178 72 -73 0 -133 -19 -197 -63 -54 -37 -70 -42 -181 -52 -405 -36 -672 -292 -719 -690 -14 -112 -14 -346 -1 -705 42 -1173 209 -2280 465 -3095 114 -363 255 -704 361 -875 68 -111 203 -255 276 -295 l53 -30 260 -3 c380 -5 679 24 768 75 20 12 43 40 62 78 17 32 42 68 57 78 14 11 75 30 134 43 119 27 154 47 210 122 37 52 78 167 88 252 9 71 -16 198 -175 908 -65 293 -119 541 -119 552 0 35 99 66 137 42 6 -4 30 -106 52 -227 81 -430 155 -635 245 -682 94 -48 366 58 425 167 23 41 25 57 29 212 5 182 8 189 55 146 64 -59 157 -433 157 -633 0 -133 -22 -197 -150 -449 -134 -261 -170 -347 -196 -461 -21 -94 -23 -255 -4 -365 28 -168 138 -441 186 -462 30 -14 58 8 86 67 l19 40 -5 -79 c-15 -210 -203 -869 -300 -1054 -20 -37 -82 -121 -139 -186 -196 -227 -247 -291 -278 -350 -45 -84 -44 -127 4 -189 20 -27 37 -57 37 -67 0 -24 -34 -48 -80 -56 -92 -17 -117 -47 -240 -294 -135 -272 -233 -427 -459 -725 -265 -349 -519 -619 -679 -721 -106 -68 -149 -108 -157 -146 -9 -37 -38 -37 -96 1 -131 87 -445 141 -559 95 -96 -38 -202 -123 -292 -231 -32 -40 -60 -42 -143 -11 -51 19 -80 22 -190 22 -112 0 -138 -3 -188 -23 -77 -30 -128 -71 -210 -166 -38 -44 -77 -84 -87 -88 -12 -6 -34 -2 -66 13 -76 33 -161 50 -258 50 -197 0 -329 -70 -465 -247 -27 -36 -39 -43 -66 -43 -19 0 -37 5 -40 10 -12 19 -105 60 -172 76 -79 18 -197 20 -266 4 -75 -16 -127 -47 -189 -111 -32 -33 -62 -59 -68 -59 -6 0 -34 25 -63 56 -83 90 -171 125 -310 125 -108 1 -212 -24 -282 -67 -82 -49 -105 -46 -153 19 -92 122 -207 202 -331 228 -91 19 -252 6 -336 -26 -112 -43 -110 -43 -152 6 -147 168 -195 205 -316 236 -84 21 -240 14 -317 -16 -76 -29 -116 -28 -143 5 -65 79 -118 131 -173 170 -71 51 -115 71 -184 84 -105 20 -353 -32 -477 -100 -40 -22 -79 -40 -87 -40 -9 0 -22 15 -30 33 -16 39 -80 97 -153 139 -150 85 -432 389 -719 773 -208 278 -302 428 -424 678 -107 219 -145 269 -222 287 -61 14 -98 35 -98 54 0 8 19 41 41 75 35 52 41 68 36 97 -13 78 -67 158 -253 371 -147 168 -184 219 -223 306 -104 231 -282 899 -281 1052 1 29 1 29 24 -15 28 -56 66 -81 91 -60 39 33 120 226 159 382 70 275 37 476 -132 808 -47 91 -102 199 -124 242 -47 94 -78 210 -78 296 0 141 52 399 110 551 32 83 40 94 80 109 l25 10 1 -162 c0 -100 5 -175 13 -198 15 -46 97 -123 159 -150 63 -28 178 -58 226 -58 59 0 99 36 145 133 64 132 104 286 167 632 15 83 32 153 38 157 20 13 86 8 111 -8 14 -9 25 -26 25 -38 0 -13 -54 -265 -121 -562 -147 -656 -169 -769 -169 -859 0 -160 78 -323 179 -375 20 -10 76 -26 124 -36 109 -21 143 -43 183 -118 17 -32 45 -67 62 -78 81 -51 386 -82 772 -76 226 3 259 5 290 22 155 83 291 260 420 549 279 624 483 1447 599 2417 69 577 98 993 107 1555 9 472 -3 569 -86 740 -117 239 -340 382 -640 410 -112 10 -127 15 -181 52 -29 20 -73 42 -98 50 -63 19 -158 16 -206 -6z m144 -162 c54 -19 55 -35 11 -302 -21 -133 -73 -451 -115 -707 -200 -1231 -342 -2085 -401 -2410 -91 -509 -223 -1180 -340 -1735 -47 -223 -57 -245 -111 -245 -28 0 -73 41 -73 67 0 10 23 126 51 258 251 1197 342 1707 774 4365 47 289 90 557 97 595 13 84 22 103 51 115 12 5 22 9 23 9 1 1 16 -4 33 -10z m6542 -19 c17 -20 19 -27 124 -680 407 -2515 510 -3094 796 -4471 19 -90 29 -166 26 -181 -13 -49 -103 -63 -126 -19 -14 26 -74 307 -192 896 -178 890 -253 1321 -614 3540 -42 259 -92 559 -110 669 -36 218 -35 247 13 265 33 11 62 5 83 -19z m-7091 -338 c17 -13 22 -28 22 -58 -1 -73 -103 -703 -246 -1519 -184 -1052 -557 -2834 -604 -2887 -19 -23 -79 -23 -104 -1 -10 9 -18 29 -18 44 0 16 27 145 60 286 245 1062 528 2544 720 3773 28 179 53 332 56 341 11 37 79 49 114 21z m7644 12 c9 -4 21 -14 26 -24 5 -9 37 -190 70 -401 201 -1275 479 -2723 716 -3739 30 -129 56 -247 56 -263 1 -40 -28 -67 -73 -67 -29 0 -42 6 -53 23 -54 86 -432 1915 -630 3052 -113 646 -216 1294 -216 1356 0 51 52 83 104 63z"/>
 <path d="M6685 10147 c-66 -70 -89 -165 -124 -537 -29 -299 -30 -319 -31 -385 0 -88 -15 -57 -39 85 -39 220 -39 220 -356 220 l-230 0 -29 86 c-35 102 -112 231 -164 274 -76 63 -153 59 -216 -10 -42 -47 -60 -106 -78 -250 l-12 -105 -13 125 c-34 345 -81 472 -183 498 -91 23 -165 -32 -200 -146 -28 -92 -46 -226 -70 -502 -11 -129 -24 -262 -28 -295 l-7 -60 -23 129 c-25 143 -38 174 -79 202 -26 18 -50 19 -314 19 -314 0 -323 -1 -359 -61 -36 -57 -20 -132 37 -170 25 -17 53 -20 247 -24 l219 -5 47 -235 c95 -472 140 -588 237 -621 66 -21 126 9 164 84 30 58 56 285 85 747 l8 115 16 -100 c40 -234 92 -333 185 -351 107 -20 185 47 229 196 18 61 46 268 46 342 0 26 4 48 8 48 5 0 16 -26 25 -59 12 -43 26 -67 52 -90 l36 -31 234 0 235 0 5 -22 c3 -13 21 -102 41 -198 70 -349 122 -522 180 -597 51 -67 157 -67 208 0 46 60 65 188 97 652 6 94 15 184 19 200 l8 30 1 -28 c2 -52 42 -230 63 -279 11 -26 40 -66 64 -88 38 -34 50 -40 89 -40 84 0 145 43 181 129 24 55 51 201 64 350 l13 134 24 -76 c17 -55 32 -83 54 -101 l31 -26 209 0 c231 0 256 5 284 60 22 43 19 102 -7 135 -35 45 -74 55 -216 55 l-129 0 -33 88 c-79 214 -195 336 -300 315 -47 -9 -97 -58 -119 -118 -11 -30 -26 -104 -33 -164 -6 -61 -13 -109 -15 -107 -2 2 -10 61 -18 132 -34 293 -59 378 -126 439 -35 31 -45 35 -96 35 -53 0 -59 -2 -98 -43z"/>
 </g>

</svg>