<!DOCTYPE svg PUBLIC "-//W3C//DTD SVG 20010904//EN" "http://www.w3.org/TR/2001/REC-SVG-20010904/DTD/svg10.dtd">
<svg version="1.0" xmlns="http://www.w3.org/2000/svg" width="512px" height="512px" viewBox="0 0 5120 5120" preserveAspectRatio="xMidYMid meet">
<g id="layer1" fill="#00aef2" stroke="none">
 <path d="M1552 4678 c-15 -15 -17 -1694 -2 -1863 12 -140 39 -235 100 -360 135 -278 375 -471 680 -548 121 -30 339 -30 460 0 233 59 438 194 582 383 64 84 141 242 170 350 l23 85 0 980 0 980 -1000 3 c-770 2 -1004 -1 -1013 -10z"/>
 <path d="M637 4283 c-11 -10 -8 -1217 3 -1320 26 -246 167 -451 389 -562 128 -65 308 -89 443 -59 79 17 81 21 52 86 -35 76 -62 154 -81 232 -14 56 -17 170 -22 845 l-6 780 -386 3 c-212 1 -388 -1 -392 -5z"/>
 <path d="M3705 4278 c-3 -7 -6 -359 -8 -783 l-2 -770 -28 -99 c-15 -55 -43 -134 -61 -175 -26 -57 -31 -79 -23 -87 20 -18 114 -34 206 -34 324 0 608 232 683 557 10 45 13 208 13 728 l0 670 -388 3 c-305 2 -389 0 -392 -10z"/>
 <path d="M0 3461 c0 -520 2 -547 49 -640 29 -56 125 -151 191 -189 100 -57 274 -78 362 -44 l27 11 -39 83 c-75 162 -73 143 -79 733 l-6 530 -252 3 -253 2 0 -489z"/>
 <path d="M4617 3943 c-4 -3 -7 -232 -7 -507 0 -567 -2 -588 -80 -753 l-39 -84 27 -11 c43 -16 151 -21 217 -9 33 6 89 25 124 42 74 37 178 135 211 200 48 93 50 119 50 639 l0 490 -248 0 c-137 0 -252 -3 -255 -7z"/>
 <path d="M377 2416 c-132 -47 -222 -192 -202 -324 10 -69 38 -126 87 -174 73 -74 169 -104 270 -86 64 12 98 29 149 75 157 142 119 396 -73 492 -50 25 -73 31 -127 31 -36 -1 -83 -7 -104 -14z"/>
 <path d="M4513 2400 c-154 -78 -216 -257 -140 -406 26 -52 85 -112 134 -138 75 -38 189 -38 271 1 52 25 120 95 145 151 30 67 30 180 -1 244 -54 110 -144 169 -267 176 -74 3 -85 1 -142 -28z"/>
 <path d="M1251 2179 c-175 -34 -323 -189 -352 -370 -34 -209 103 -425 309 -489 286 -89 572 124 572 425 0 132 -41 224 -140 319 -107 102 -245 143 -389 115z"/>
 <path d="M3696 2179 c-73 -12 -166 -62 -224 -120 -92 -92 -132 -187 -132 -314 0 -300 287 -513 572 -425 318 98 418 500 183 735 -108 107 -245 150 -399 124z"/>
 <path d="M2420 1724 c-35 -7 -103 -32 -149 -54 -70 -34 -101 -57 -171 -128 -142 -144 -196 -284 -187 -482 8 -180 65 -308 195 -437 57 -58 92 -82 165 -117 109 -53 168 -66 287 -66 115 0 177 13 275 60 247 117 387 351 372 624 -9 173 -61 290 -187 417 -69 70 -101 94 -170 128 -139 68 -285 87 -430 55z"/>
 </g>

</svg>