<!DOCTYPE svg PUBLIC "-//W3C//DTD SVG 20010904//EN" "http://www.w3.org/TR/2001/REC-SVG-20010904/DTD/svg10.dtd">
<svg version="1.0" xmlns="http://www.w3.org/2000/svg" width="512px" height="512px" viewBox="0 0 5120 5120" preserveAspectRatio="xMidYMid meet">
<g id="layer1" fill="#00aef2" stroke="none">
 <path d="M1818 3698 c-399 -783 -739 -1457 -755 -1498 -79 -196 -113 -375 -113 -600 0 -211 30 -380 100 -569 178 -483 640 -893 1120 -994 242 -51 538 -51 780 0 480 101 942 511 1120 994 36 98 67 217 86 329 21 129 18 374 -6 516 -42 244 -38 236 -837 1802 -541 1061 -740 1442 -753 1442 -12 0 -209 -376 -742 -1422z m992 -1187 c326 -94 566 -337 662 -667 20 -68 23 -102 23 -244 0 -142 -3 -176 -23 -244 -79 -274 -251 -482 -497 -601 -153 -75 -224 -90 -415 -90 -142 0 -176 3 -244 23 -326 94 -564 327 -662 647 -26 84 -28 102 -28 265 0 162 2 182 27 263 105 341 367 584 713 661 102 23 344 16 444 -13z"/>
 </g>

</svg>