<!DOCTYPE svg PUBLIC "-//W3C//DTD SVG 20010904//EN" "http://www.w3.org/TR/2001/REC-SVG-20010904/DTD/svg10.dtd">
<svg version="1.0" xmlns="http://www.w3.org/2000/svg" width="512px" height="512px" viewBox="0 0 5120 5120" preserveAspectRatio="xMidYMid meet">
<g id="layer1" fill="#000000" stroke="none">
 <path d="M1669 4147 c-18 -12 -44 -38 -56 -56 l-23 -34 0 -1497 0 -1497 23 -34 c37 -55 81 -79 147 -79 43 0 63 5 86 23 17 12 390 336 831 719 896 780 853 737 853 868 0 134 44 89 -874 887 -450 391 -828 714 -840 717 -49 13 -113 6 -147 -17z"/>
 </g>

</svg>