<!DOCTYPE svg PUBLIC "-//W3C//DTD SVG 20010904//EN" "http://www.w3.org/TR/2001/REC-SVG-20010904/DTD/svg10.dtd">
<svg version="1.0" xmlns="http://www.w3.org/2000/svg" width="512px" height="512px" viewBox="0 0 5120 5120" preserveAspectRatio="xMidYMid meet">
<g id="layer1" fill="#ffffff" stroke="none">
 <path d="M215 4458 c-3 -7 -4 -236 -3 -508 l3 -495 2345 0 2345 0 0 505 0 505 -2343 3 c-1869 2 -2344 0 -2347 -10z"/>
 <path d="M215 3058 c-3 -7 -4 -236 -3 -508 l3 -495 2345 0 2345 0 0 505 0 505 -2343 3 c-1869 2 -2344 0 -2347 -10z"/>
 <path d="M215 1658 c-3 -7 -4 -236 -3 -508 l3 -495 2345 0 2345 0 0 505 0 505 -2343 3 c-1869 2 -2344 0 -2347 -10z"/>
 </g>

</svg>