<!DOCTYPE svg PUBLIC "-//W3C//DTD SVG 20010904//EN" "http://www.w3.org/TR/2001/REC-SVG-20010904/DTD/svg10.dtd">
<svg version="1.0" xmlns="http://www.w3.org/2000/svg" width="512px" height="512px" viewBox="0 0 5120 5120" preserveAspectRatio="xMidYMid meet">
<g id="layer1" fill="#00aef2" stroke="none">
 <path d="M2420 4904 c-88 -24 -129 -55 -252 -191 -131 -144 -534 -545 -678 -674 -207 -185 -345 -291 -439 -339 -102 -51 -166 -60 -441 -60 -313 0 -364 -13 -478 -115 -59 -53 -95 -109 -117 -181 -21 -71 -22 -1481 -1 -1562 20 -73 57 -132 118 -187 113 -101 168 -115 467 -115 130 0 265 -5 301 -10 132 -21 246 -92 510 -319 131 -112 619 -593 810 -797 82 -88 103 -104 155 -124 90 -34 223 -39 312 -12 135 41 252 157 293 289 20 64 20 90 20 2053 0 1963 0 1989 -20 2053 -40 130 -158 247 -288 287 -77 24 -192 25 -272 4z"/>
 <path d="M4090 4240 c-66 -99 -120 -181 -120 -184 0 -2 64 -68 143 -147 78 -79 168 -181 200 -225 486 -687 486 -1561 0 -2248 -32 -44 -122 -146 -200 -225 -79 -79 -143 -145 -143 -147 0 -11 241 -364 249 -364 15 0 172 143 271 246 275 288 475 651 575 1044 73 287 73 853 0 1140 -82 323 -231 626 -436 886 -104 132 -382 404 -412 404 -4 0 -61 -81 -127 -180z"/>
 <path d="M3728 3692 c-9 -9 -66 -92 -127 -185 l-111 -167 68 -81 c179 -210 265 -437 265 -699 0 -263 -86 -489 -266 -700 l-68 -79 120 -180 c66 -99 124 -182 129 -185 13 -8 111 83 185 172 169 203 272 415 329 676 32 146 32 446 0 592 -65 299 -192 537 -406 762 -28 30 -63 62 -77 73 -25 17 -27 18 -41 1z"/>
 </g>

</svg>