<!DOCTYPE svg PUBLIC "-//W3C//DTD SVG 20010904//EN" "http://www.w3.org/TR/2001/REC-SVG-20010904/DTD/svg10.dtd">
<svg version="1.0" xmlns="http://www.w3.org/2000/svg" width="1600px" height="1600px" viewBox="0 0 16000 16000" preserveAspectRatio="xMidYMid meet">
<g id="layer101" fill="#ffffff" stroke="none">
 <path d="M4714 14270 c-94 -24 -132 -41 -202 -89 -35 -24 -338 -322 -753 -740 -786 -793 -754 -755 -754 -900 1 -82 3 -90 48 -181 77 -155 95 -288 57 -434 -68 -265 -300 -448 -570 -449 -115 0 -187 17 -312 78 -84 41 -98 45 -168 45 -140 0 -105 30 -916 -777 -668 -665 -724 -723 -757 -788 -71 -142 -91 -274 -63 -415 21 -102 59 -186 119 -265 25 -33 1750 -1764 3834 -3847 2848 -2847 3804 -3796 3852 -3827 100 -64 204 -93 331 -92 122 0 193 16 300 67 70 33 94 55 365 329 l291 294 443 -443 c287 -287 462 -454 497 -476 96 -58 177 -82 299 -87 131 -6 212 10 325 63 73 35 96 57 788 753 393 394 725 733 738 754 35 54 57 148 49 208 -4 27 -27 90 -51 139 -56 117 -74 187 -74 297 0 166 56 299 175 418 116 117 254 175 415 175 102 0 186 -22 299 -78 90 -44 101 -47 176 -47 141 0 101 -34 912 772 792 788 771 764 813 928 24 94 26 223 5 314 -9 35 -34 100 -57 145 -41 80 -68 108 -3847 3889 -2093 2095 -3827 3824 -3852 3842 -154 115 -354 154 -543 105 -148 -38 -173 -57 -497 -378 l-297 -294 -453 455 c-434 435 -457 456 -530 491 -138 66 -296 83 -435 46z m627 -1097 c315 -317 471 -479 480 -503 18 -47 94 -127 144 -152 23 -12 148 -127 300 -277 704 -695 5902 -5881 5998 -5984 l111 -118 -605 -605 c-526 -527 -607 -604 -629 -601 -14 3 -68 15 -120 27 -121 27 -353 38 -470 21 -493 -72 -859 -441 -930 -936 -21 -152 -5 -370 40 -531 l19 -69 -67 -70 c-240 -251 -299 -307 -344 -327 -54 -23 -130 -99 -155 -155 -17 -38 -628 -663 -648 -663 -13 0 -1145 1132 -1145 1145 1 6 14 26 30 45 30 34 30 36 30 156 0 67 -3 134 -6 150 -4 23 -29 46 -114 107 -60 42 -115 79 -122 82 -7 3 -71 -17 -143 -44 l-130 -50 -2952 2952 c-1624 1624 -2953 2957 -2953 2962 0 9 323 333 970 972 l245 242 69 -19 c160 -45 379 -61 531 -40 183 26 381 107 516 209 138 105 275 278 339 430 60 140 81 242 87 411 6 164 -2 239 -39 398 l-21 93 604 605 c332 332 606 604 609 604 3 0 215 -210 471 -467z m5509 -3599 l3755 -3756 -610 -604 c-473 -469 -614 -604 -630 -600 -11 2 -61 13 -110 25 -481 109 -928 -36 -1198 -391 -153 -201 -221 -412 -221 -683 0 -145 11 -237 45 -363 l19 -74 -479 -486 c-264 -268 -536 -543 -605 -612 l-126 -125 -176 175 c-96 96 -279 282 -406 412 l-230 238 198 205 c233 240 254 273 254 394 0 68 -4 84 -49 180 -61 134 -76 193 -74 306 4 274 201 514 468 570 144 30 267 12 415 -62 91 -45 99 -47 180 -48 147 0 102 -39 921 777 709 706 728 725 762 798 100 213 85 449 -39 635 -19 29 -150 170 -290 314 l-256 261 65 71 c85 91 110 143 115 236 8 138 -54 245 -175 305 -58 28 -77 33 -143 32 -100 0 -152 -24 -244 -114 -40 -38 -77 -70 -82 -70 -5 0 -1203 1194 -2661 2653 l-2653 2652 246 253 c135 138 249 252 252 252 4 0 1697 -1690 3762 -3756z"/>
 <path d="M10583 7467 c-138 -47 -147 -54 -319 -247 l-94 -105 0 -138 c0 -76 4 -146 9 -156 12 -21 221 -161 241 -161 8 0 71 19 140 42 l125 41 115 110 c63 61 127 131 142 156 27 44 28 51 28 188 l0 142 -120 85 c-67 48 -126 86 -133 85 -7 0 -67 -19 -134 -42z"/>
 <path d="M9695 6564 l-130 -44 -118 -118 c-65 -64 -131 -137 -146 -162 l-29 -45 5 -141 5 -142 107 -74 c58 -41 111 -77 117 -81 6 -4 72 14 145 38 l134 45 113 113 c62 61 126 133 142 158 29 43 30 51 29 150 -1 190 3 182 -124 271 -60 42 -112 77 -115 77 -3 0 -63 -20 -135 -45z"/>
 <path d="M8795 5668 l-130 -48 -123 -123 c-67 -67 -134 -139 -148 -159 -26 -37 -26 -38 -19 -178 l7 -141 120 -80 119 -80 137 45 137 46 111 113 c61 61 125 131 143 154 l33 43 -7 145 -8 144 -110 78 c-61 43 -115 81 -121 84 -6 3 -69 -16 -141 -43z"/>
 <path d="M7893 4767 l-123 -42 -116 -115 c-63 -63 -129 -134 -145 -157 -28 -40 -29 -46 -28 -150 1 -189 -3 -181 122 -268 59 -41 113 -75 120 -75 7 0 68 19 137 41 l125 41 108 107 c60 58 126 131 146 161 l38 55 -6 145 -6 144 -110 78 c-60 42 -117 77 -125 77 -8 0 -70 -19 -137 -42z"/>
 </g>

</svg>